<svg width="960" height="600" viewBox="0 0 960 600" xmlns="http://www.w3.org/2000/svg">
  <!-- Background -->
  <rect width="960" height="600" fill="#f9fafb"/>
  
  <!-- Define patterns for different room types -->
  <defs>
    <!-- Hatching pattern for special areas -->
    <pattern id="hatch" patternUnits="userSpaceOnUse" width="4" height="4">
      <path d="M-1,1 l2,-2 M0,4 l4,-4 M3,5 l2,-2" stroke="#d1d5db" stroke-width="0.5"/>
    </pattern>
    
    <!-- Grid pattern for floors -->
    <pattern id="grid" patternUnits="userSpaceOnUse" width="20" height="20">
      <path d="M 20 0 L 0 0 0 20" fill="none" stroke="#f3f4f6" stroke-width="0.5"/>
    </pattern>
  </defs>

  <!-- Main floor area with grid -->
  <rect x="10" y="10" width="940" height="580" fill="url(#grid)" stroke="none"/>

  <!-- EXISTING TUNNEL - Top (East Tunnel) -->
  <g id="tunnel-top">
    <rect x="350" y="0" width="60" height="200" fill="#e5e7eb" stroke="#374151" stroke-width="2"/>
    <text x="380" y="100" font-size="12" font-weight="bold" fill="#374151" transform="rotate(-90 380 100)" text-anchor="middle">EXISTING TUNNEL</text>
    <!-- Tunnel entrance detail -->
    <rect x="360" y="190" width="18" height="10" fill="#d1d5db" stroke="#374151" stroke-width="1.5"/>
    <rect x="382" y="190" width="18" height="10" fill="#d1d5db" stroke="#374151" stroke-width="1.5"/>
  </g>

  <!-- EXISTING TUNNEL - Bottom (South Tunnel) -->
  <g id="tunnel-bottom">
    <rect x="410" y="440" width="60" height="160" fill="#e5e7eb" stroke="#374151" stroke-width="2"/>
    <text x="440" y="520" font-size="12" font-weight="bold" fill="#374151" transform="rotate(-90 440 520)" text-anchor="middle">EXISTING TUNNEL</text>
    <!-- Tunnel entrance detail -->
    <rect x="420" y="440" width="18" height="10" fill="#d1d5db" stroke="#374151" stroke-width="1.5"/>
    <rect x="442" y="440" width="18" height="10" fill="#d1d5db" stroke="#374151" stroke-width="1.5"/>
  </g>

  <!-- Left Wing - Storage/Equipment Area -->
  <g id="left-wing">
    <!-- Top left corner room with diagonal hatch (Equipment storage) -->
    <rect x="10" y="200" width="70" height="70" fill="url(#hatch)" stroke="#374151" stroke-width="2"/>
    <!-- Diagonal cross pattern -->
    <line x1="10" y1="200" x2="80" y2="270" stroke="#6b7280" stroke-width="1.5"/>
    <line x1="80" y1="200" x2="10" y2="270" stroke="#6b7280" stroke-width="1.5"/>
    <!-- Equipment symbols -->
    <rect x="15" y="235" width="8" height="30" fill="#374151"/>
    <rect x="25" y="235" width="8" height="30" fill="#374151"/>
    <rect x="35" y="235" width="8" height="30" fill="#374151"/>
    
    <!-- Second corner room (similar equipment) -->
    <rect x="10" y="370" width="70" height="70" fill="url(#hatch)" stroke="#374151" stroke-width="2"/>
    <line x1="10" y1="370" x2="80" y2="440" stroke="#6b7280" stroke-width="1.5"/>
    <line x1="80" y1="370" x2="10" y2="440" stroke="#6b7280" stroke-width="1.5"/>
    
    <!-- Vertical corridor rooms on left -->
    <rect x="10" y="280" width="40" height="25" fill="#ffffff" stroke="#374151" stroke-width="2"/>
    <rect x="10" y="305" width="40" height="25" fill="#ffffff" stroke="#374151" stroke-width="2"/>
    <rect x="10" y="330" width="40" height="40" fill="#ffffff" stroke="#374151" stroke-width="2"/>
    
    <!-- Equipment marks in rooms -->
    <rect x="15" y="285" width="6" height="15" fill="#6b7280"/>
    <rect x="15" y="310" width="6" height="15" fill="#6b7280"/>
    <rect x="15" y="335" width="6" height="15" fill="#6b7280"/>
    <rect x="25" y="285" width="6" height="15" fill="#6b7280"/>
    <rect x="25" y="310" width="6" height="15" fill="#6b7280"/>
    <rect x="25" y="335" width="6" height="15" fill="#6b7280"/>
    <rect x="35" y="285" width="6" height="15" fill="#6b7280"/>
    <rect x="35" y="310" width="6" height="15" fill="#6b7280"/>
    <rect x="35" y="335" width="6" height="15" fill="#6b7280"/>
    
    <!-- Small rooms adjacent to corridor -->
    <rect x="90" y="200" width="50" height="80" fill="#ffffff" stroke="#374151" stroke-width="2"/>
    <rect x="150" y="200" width="70" height="80" fill="#ffffff" stroke="#374151" stroke-width="2"/>
    <rect x="90" y="290" width="130" height="90" fill="#ffffff" stroke="#374151" stroke-width="2"/>
    
    <!-- Large open room bottom left -->
    <rect x="90" y="390" width="130" height="100" fill="#ffffff" stroke="#374151" stroke-width="2"/>
    
    <!-- Small connecting rooms -->
    <rect x="230" y="200" width="50" height="80" fill="#ffffff" stroke="#374151" stroke-width="2"/>
    <rect x="230" y="290" width="50" height="90" fill="#ffffff" stroke="#374151" stroke-width="2"/>
    <rect x="230" y="390" width="50" height="100" fill="#ffffff" stroke="#374151" stroke-width="2"/>
  </g>

  <!-- Central Corridor Area -->
  <g id="central-corridor">
    <rect x="290" y="200" width="60" height="240" fill="#e5e7eb" stroke="#374151" stroke-width="2"/>
    
    <!-- Door openings in corridor -->
    <rect x="290" y="250" width="15" height="8" fill="#d1d5db" stroke="#374151" stroke-width="1"/>
    <rect x="290" y="310" width="15" height="8" fill="#d1d5db" stroke="#374151" stroke-width="1"/>
    <rect x="290" y="370" width="15" height="8" fill="#d1d5db" stroke="#374151" stroke-width="1"/>
    <rect x="335" y="250" width="15" height="8" fill="#d1d5db" stroke="#374151" stroke-width="1"/>
    <rect x="335" y="310" width="15" height="8" fill="#d1d5db" stroke="#374151" stroke-width="1"/>
    <rect x="335" y="370" width="15" height="8" fill="#d1d5db" stroke="#374151" stroke-width="1"/>
  </g>

  <!-- Top Right Section - Labs/Offices -->
  <g id="top-right">
    <!-- Two connected rooms -->
    <rect x="360" y="200" width="150" height="70" fill="#ffffff" stroke="#374151" stroke-width="2"/>
    <rect x="520" y="200" width="130" height="70" fill="#ffffff" stroke="#374151" stroke-width="2"/>
    
    <!-- Interior walls and equipment -->
    <line x1="380" y1="200" x2="380" y2="270" stroke="#9ca3af" stroke-width="1.5"/>
    <line x1="400" y1="200" x2="400" y2="270" stroke="#9ca3af" stroke-width="1.5"/>
    
    <!-- Desk/equipment symbols in offices -->
    <rect x="470" y="210" width="30" height="15" fill="none" stroke="#6b7280" stroke-width="1.5"/>
    <rect x="470" y="240" width="30" height="15" fill="none" stroke="#6b7280" stroke-width="1.5"/>
    <rect x="530" y="215" width="25" height="20" fill="none" stroke="#6b7280" stroke-width="1.5"/>
    <rect x="560" y="215" width="25" height="20" fill="none" stroke="#6b7280" stroke-width="1.5"/>
    <rect x="590" y="215" width="25" height="20" fill="none" stroke="#6b7280" stroke-width="1.5"/>
  </g>

  <!-- Right Wing - Large Conference/Training Room -->
  <g id="right-conference">
    <rect x="360" y="280" width="290" height="100" fill="#ffffff" stroke="#374151" stroke-width="2"/>
    
    <!-- Conference table (two rows) -->
    <g id="conference-tables">
      <!-- Top row -->
      <rect x="530" y="295" width="20" height="15" fill="none" stroke="#6b7280" stroke-width="1.5"/>
      <rect x="555" y="295" width="20" height="15" fill="none" stroke="#6b7280" stroke-width="1.5"/>
      <rect x="580" y="295" width="20" height="15" fill="none" stroke="#6b7280" stroke-width="1.5"/>
      <rect x="605" y="295" width="20" height="15" fill="none" stroke="#6b7280" stroke-width="1.5"/>
      
      <!-- Bottom row -->
      <rect x="530" y="320" width="20" height="15" fill="none" stroke="#6b7280" stroke-width="1.5"/>
      <rect x="555" y="320" width="20" height="15" fill="none" stroke="#6b7280" stroke-width="1.5"/>
      <rect x="580" y="320" width="20" height="15" fill="none" stroke="#6b7280" stroke-width="1.5"/>
      <rect x="605" y="320" width="20" height="15" fill="none" stroke="#6b7280" stroke-width="1.5"/>
      
      <!-- Additional seats -->
      <rect x="625" y="295" width="15" height="15" fill="none" stroke="#6b7280" stroke-width="1.5"/>
      <rect x="625" y="320" width="15" height="15" fill="none" stroke="#6b7280" stroke-width="1.5"/>
    </g>
    
    <!-- Curved elements on right side -->
    <path d="M 520 390 Q 540 395 520 410" fill="none" stroke="#374151" stroke-width="2"/>
    <path d="M 540 390 Q 560 400 540 420" fill="none" stroke="#374151" stroke-width="2"/>
  </g>

  <!-- Right Bottom Section - Storage/Equipment Rooms -->
  <g id="right-storage">
    <!-- Two-level storage area -->
    <rect x="480" y="390" width="170" height="100" fill="#ffffff" stroke="#374151" stroke-width="2"/>
    
    <!-- Upper storage compartments -->
    <g id="upper-storage">
      <rect x="490" y="345" width="25" height="15" fill="#d1d5db" stroke="#6b7280" stroke-width="1"/>
      <rect x="490" y="365" width="25" height="15" fill="#d1d5db" stroke="#6b7280" stroke-width="1"/>
      
      <!-- Equipment symbols -->
      <rect x="525" y="345" width="35" height="12" fill="none" stroke="#6b7280" stroke-width="1.5"/>
      <rect x="565" y="345" width="35" height="12" fill="none" stroke="#6b7280" stroke-width="1.5"/>
      <rect x="605" y="345" width="35" height="12" fill="none" stroke="#6b7280" stroke-width="1.5"/>
      
      <rect x="525" y="362" width="35" height="12" fill="none" stroke="#6b7280" stroke-width="1.5"/>
      <rect x="565" y="362" width="35" height="12" fill="none" stroke="#6b7280" stroke-width="1.5"/>
      <rect x="605" y="362" width="35" height="12" fill="none" stroke="#6b7280" stroke-width="1.5"/>
    </g>
    
    <!-- Lower storage compartments -->
    <g id="lower-storage">
      <rect x="490" y="400" width="25" height="15" fill="#d1d5db" stroke="#6b7280" stroke-width="1"/>
      <rect x="490" y="420" width="25" height="15" fill="#d1d5db" stroke="#6b7280" stroke-width="1"/>
      
      <!-- Equipment symbols -->
      <rect x="530" y="400" width="30" height="12" fill="none" stroke="#6b7280" stroke-width="1.5"/>
      <rect x="565" y="400" width="30" height="12" fill="none" stroke="#6b7280" stroke-width="1.5"/>
      <rect x="600" y="400" width="30" height="12" fill="none" stroke="#6b7280" stroke-width="1.5"/>
      
      <rect x="530" y="417" width="30" height="12" fill="none" stroke="#6b7280" stroke-width="1.5"/>
      <rect x="565" y="417" width="30" height="12" fill="none" stroke="#6b7280" stroke-width="1.5"/>
      <rect x="600" y="417" width="30" height="12" fill="none" stroke="#6b7280" stroke-width="1.5"/>
    </g>
    
    <!-- Curved wall detail on right -->
    <path d="M 640 440 Q 650 455 640 480" fill="none" stroke="#374151" stroke-width="2"/>
  </g>

  <!-- Door symbols throughout -->
  <g id="doors" stroke="#374151" stroke-width="2" fill="#ffffff">
    <!-- Doors between rooms -->
    <rect x="80" y="235" width="10" height="3" fill="#d1d5db"/>
    <rect x="140" y="240" width="10" height="3" fill="#d1d5db"/>
    <rect x="220" y="235" width="10" height="3" fill="#d1d5db"/>
    <rect x="280" y="240" width="10" height="3" fill="#d1d5db"/>
    
    <!-- Doors to corridor -->
    <rect x="140" y="305" width="10" height="3" fill="#d1d5db"/>
    <rect x="220" y="330" width="10" height="3" fill="#d1d5db"/>
    <rect x="280" y="330" width="10" height="3" fill="#d1d5db"/>
    
    <!-- Doors to right section -->
    <rect x="350" y="235" width="10" height="3" fill="#d1d5db"/>
    <rect x="510" y="235" width="10" height="3" fill="#d1d5db"/>
    <rect x="480" y="310" width="10" height="3" fill="#d1d5db"/>
    
    <!-- Bottom doors -->
    <rect x="140" y="420" width="10" height="3" fill="#d1d5db"/>
    <rect x="220" y="420" width="10" height="3" fill="#d1d5db"/>
    <rect x="350" y="415" width="10" height="3" fill="#d1d5db"/>
  </g>

  <!-- Wall thickness and shadows for depth -->
  <g id="wall-shadows" opacity="0.3">
    <rect x="8" y="198" width="74" height="4" fill="#374151"/>
    <rect x="8" y="198" width="4" height="246" fill="#374151"/>
    <rect x="88" y="198" width="4" height="296" fill="#374151"/>
    <rect x="288" y="198" width="4" height="246" fill="#374151"/>
    <rect x="358" y="198" width="4" height="296" fill="#374151"/>
  </g>

  <!-- Labels for key areas -->
  <g id="labels" font-family="Arial, sans-serif" font-size="10" fill="#374151" font-weight="600">
    <!-- Room labels would go here if needed -->
  </g>
</svg>
